<svg width="20" height="21" viewBox="0 0 20 21" fill="none" xmlns="http://www.w3.org/2000/svg">
<path d="M7.77344 6.00391C7.72135 5.79557 7.59766 5.63932 7.40234 5.53516C7.22005 5.43099 7.02474 5.41146 6.81641 5.47656C6.60807 5.52865 6.45182 5.65234 6.34766 5.84766C6.24349 6.02995 6.22396 6.22526 6.28906 6.43359C6.51042 7.25391 6.95964 7.91797 7.63672 8.42578C8.3138 8.93359 9.07552 9.1875 9.92188 9.1875H10.0781C10.9245 9.1875 11.6862 8.93359 12.3633 8.42578C13.0404 7.91797 13.4896 7.25391 13.7109 6.43359C13.776 6.22526 13.7565 6.02995 13.6523 5.84766C13.5482 5.65234 13.3919 5.52865 13.1836 5.47656C12.9753 5.41146 12.7734 5.43099 12.5781 5.53516C12.3958 5.63932 12.2786 5.79557 12.2266 6.00391C12.0833 6.48568 11.8099 6.8763 11.4062 7.17578C11.0156 7.47526 10.5729 7.625 10.0781 7.625H9.92188C9.42708 7.625 8.97786 7.47526 8.57422 7.17578C8.18359 6.8763 7.91667 6.48568 7.77344 6.00391ZM2.61719 3.34766L1.38672 15.6523C1.32161 16.2513 1.38672 16.8242 1.58203 17.3711C1.76432 17.9049 2.03776 18.3802 2.40234 18.7969C2.77995 19.2005 3.22917 19.5195 3.75 19.7539C4.27083 20.0013 4.83073 20.125 5.42969 20.125H14.5703C15.1693 20.125 15.7292 20.0013 16.25 19.7539C16.7708 19.5195 17.2135 19.2005 17.5781 18.7969C17.9557 18.3802 18.2357 17.9049 18.418 17.3711C18.6133 16.8242 18.6784 16.2513 18.6133 15.6523L17.3828 3.34766C17.3307 2.78776 17.0964 2.31901 16.6797 1.94141C16.263 1.5638 15.7747 1.375 15.2148 1.375H4.78516C4.22526 1.375 3.73698 1.5638 3.32031 1.94141C2.90365 2.31901 2.66927 2.78776 2.61719 3.34766ZM4.78516 2.9375H15.2148C15.3711 2.9375 15.5078 2.99609 15.625 3.11328C15.7422 3.21745 15.8073 3.34766 15.8203 3.50391L17.0703 15.8086C17.1354 16.5508 16.9206 17.1953 16.4258 17.7422C15.931 18.2891 15.3125 18.5625 14.5703 18.5625H5.42969C4.6875 18.5625 4.06901 18.2891 3.57422 17.7422C3.07943 17.1953 2.86458 16.5508 2.92969 15.8086L4.17969 3.50391C4.19271 3.34766 4.25781 3.21745 4.375 3.11328C4.49219 2.99609 4.62891 2.9375 4.78516 2.9375Z" fill="#333333"/>
</svg>
