<svg width="20" height="21" viewBox="0 0 20 21" fill="none" xmlns="http://www.w3.org/2000/svg">
<path d="M17.9102 12.332C18.5352 11.694 18.9974 10.9779 19.2969 10.1836C19.5833 9.3763 19.707 8.5625 19.668 7.74219C19.6419 6.92188 19.4531 6.12109 19.1016 5.33984C18.737 4.57161 18.2161 3.89453 17.5391 3.30859C17.1094 2.94401 16.6406 2.65755 16.1328 2.44922C15.625 2.24089 15.1042 2.11068 14.5703 2.05859C14.0365 2.00651 13.5026 2.03906 12.9688 2.15625C12.4349 2.27344 11.9271 2.47526 11.4453 2.76172L10.1367 3.52344C10.0977 3.54948 10.0521 3.5625 10 3.5625C9.94792 3.5625 9.90234 3.54948 9.86328 3.52344L8.55469 2.76172C8.07292 2.47526 7.5651 2.27344 7.03125 2.15625C6.4974 2.03906 5.96354 2.00651 5.42969 2.05859C4.89583 2.11068 4.375 2.24089 3.86719 2.44922C3.35938 2.65755 2.89062 2.94401 2.46094 3.30859C1.78385 3.89453 1.26302 4.57161 0.898438 5.33984C0.546875 6.12109 0.351562 6.92188 0.3125 7.74219C0.286458 8.5625 0.416667 9.3763 0.703125 10.1836C1.0026 10.9779 1.46484 11.694 2.08984 12.332L8.55469 18.8945C8.95833 19.2982 9.4401 19.5 10 19.5C10.5599 19.5 11.0417 19.2982 11.4453 18.8945L17.9102 12.332ZM16.7969 11.2383L10.332 17.8008C10.2409 17.8919 10.1302 17.9375 10 17.9375C9.86979 17.9375 9.75911 17.8919 9.66797 17.8008L3.20312 11.2383C2.73438 10.7565 2.38932 10.2161 2.16797 9.61719C1.94661 9.03125 1.84896 8.43229 1.875 7.82031C1.90104 7.19531 2.05078 6.59635 2.32422 6.02344C2.58464 5.4375 2.96875 4.92969 3.47656 4.5C4.07552 3.97917 4.76562 3.6862 5.54688 3.62109C6.34115 3.54297 7.08333 3.70573 7.77344 4.10938L9.08203 4.87109C9.36849 5.04036 9.67448 5.125 10 5.125C10.3255 5.125 10.6315 5.04036 10.918 4.87109L12.2266 4.10938C12.9167 3.70573 13.6523 3.54297 14.4336 3.62109C15.2279 3.6862 15.9245 3.97917 16.5234 4.5C17.0312 4.92969 17.4154 5.4375 17.6758 6.02344C17.9492 6.59635 18.099 7.19531 18.125 7.82031C18.151 8.43229 18.0534 9.03125 17.832 9.61719C17.6107 10.2161 17.2656 10.7565 16.7969 11.2383Z" fill="#333333"/>
</svg>
