<svg width="256" height="43" viewBox="0 0 256 43" fill="none" xmlns="http://www.w3.org/2000/svg">
<g clip-path="url(#clip0_12236_13005)">
<circle cx="21.5" cy="21.5" r="21.5" fill="#E7E5D9"/>
<path d="M24 30.9976C23.328 34.1625 23 36 23 36C23 36 20.6801 35.3274 19 35C17.3199 34.6726 15.6801 35.2183 14 35C12.3199 34.7817 12.112 34.3274 12 34C11.888 33.6726 12.7704 29.7972 15.0105 26.7414C17.2507 23.6856 20.1629 21.1756 19.6029 20.3025C19.0428 19.4294 13.8904 20.3025 11.4263 23.9039C8.96208 27.5053 8.40204 30.9976 8.40204 30.9976C8.40204 30.9976 5.60183 27.3962 5.48982 25.9775C5.37782 24.5587 5.48983 23.9039 7.842 21.8304C10.1942 19.7568 17.4747 17.0285 17.1387 16.7011C16.8027 16.3737 12.1362 15.0356 9.00001 17C5.86378 18.9644 5.00001 21 5.00001 21C5.00001 21 4.45251 15.0735 7.70075 13C10.949 10.9265 14.9524 11.6667 17.0806 11.6667C19.2087 11.6667 21.7684 10.9027 22.4404 11.6667C23.1125 12.4306 24 13.5 24 13.5C24 13.5 24.052 12.5279 24.5 11C24.948 9.47212 27.8003 7 29.1403 7C30.4803 7 30.5882 8.12693 31.8203 9C33.0523 9.87307 34.724 10.153 35.284 10.6987C36.7272 12.1048 35.594 13.3389 35.284 15C35.06 16.2005 36.17 18.5 35.5 18.5C34.83 18.5 33.6882 17.4365 31 17C28.3118 16.5635 26.776 16.7361 27 17.5C27.224 18.2639 29.6478 18.9721 32 20.5C34.3522 22.0279 34.67 23.3333 34 24C33.33 24.6667 24.6721 27.8327 24 30.9976Z" stroke="#5E6821" stroke-width="2"/>
<path d="M24 12.5C24 12.5 24.061 18.6 22.7684 22.5429C21.4758 26.4857 18.5 28.5 22 35M28 27C28 27 28 33 32 37" stroke="#5E6821" stroke-width="2"/>
<path d="M61.312 34.46H54.206L49 15.422H54.89L57.132 24.124L57.93 30.052H58.31L59.83 23.554L62.718 15.422H70.052L72.902 23.554L74.422 30.052H74.802L75.638 24.124L77.842 15.422H83.656L78.26 34.46H71.154L67.886 25.302L66.48 20.058H66.062L64.618 25.302L61.312 34.46Z" fill="#242424"/>
<path d="M94.9462 34.84C92.7928 34.84 90.8928 34.4347 89.2462 33.624C87.6248 32.8133 86.3582 31.6733 85.4462 30.204C84.5342 28.7093 84.0782 26.9613 84.0782 24.96C84.0782 22.9333 84.5342 21.1853 85.4462 19.716C86.3582 18.2213 87.6248 17.0687 89.2462 16.258C90.8928 15.4473 92.7928 15.042 94.9462 15.042C97.1248 15.042 99.0248 15.4473 100.646 16.258C102.267 17.0687 103.534 18.2213 104.446 19.716C105.358 21.1853 105.814 22.9333 105.814 24.96C105.814 26.9613 105.358 28.7093 104.446 30.204C103.534 31.6733 102.267 32.8133 100.646 33.624C99.0248 34.4347 97.1248 34.84 94.9462 34.84ZM94.9462 29.786C96.8715 29.786 98.2142 29.406 98.9742 28.646C99.7595 27.8607 100.152 26.632 100.152 24.96C100.152 23.2627 99.7595 22.0213 98.9742 21.236C98.2142 20.4507 96.8715 20.058 94.9462 20.058C93.0208 20.058 91.6655 20.4507 90.8802 21.236C90.1202 22.0213 89.7402 23.2627 89.7402 24.96C89.7402 26.632 90.1202 27.8607 90.8802 28.646C91.6655 29.406 93.0208 29.786 94.9462 29.786Z" fill="#242424"/>
<path d="M117.908 34.84C115.755 34.84 113.855 34.4347 112.208 33.624C110.587 32.8133 109.32 31.6733 108.408 30.204C107.496 28.7093 107.04 26.9613 107.04 24.96C107.04 22.9333 107.496 21.1853 108.408 19.716C109.32 18.2213 110.587 17.0687 112.208 16.258C113.855 15.4473 115.755 15.042 117.908 15.042C120.087 15.042 121.987 15.4473 123.608 16.258C125.229 17.0687 126.496 18.2213 127.408 19.716C128.32 21.1853 128.776 22.9333 128.776 24.96C128.776 26.9613 128.32 28.7093 127.408 30.204C126.496 31.6733 125.229 32.8133 123.608 33.624C121.987 34.4347 120.087 34.84 117.908 34.84ZM117.908 29.786C119.833 29.786 121.176 29.406 121.936 28.646C122.721 27.8607 123.114 26.632 123.114 24.96C123.114 23.2627 122.721 22.0213 121.936 21.236C121.176 20.4507 119.833 20.058 117.908 20.058C115.983 20.058 114.627 20.4507 113.842 21.236C113.082 22.0213 112.702 23.2627 112.702 24.96C112.702 26.632 113.082 27.8607 113.842 28.646C114.627 29.406 115.983 29.786 117.908 29.786Z" fill="#242424"/>
<path d="M139.236 34.84C137.26 34.84 135.588 34.4347 134.22 33.624C132.852 32.8133 131.813 31.6733 131.104 30.204C130.394 28.7093 130.04 26.9613 130.04 24.96C130.04 22.9333 130.382 21.1853 131.066 19.716C131.775 18.2213 132.788 17.0687 134.106 16.258C135.448 15.4473 137.057 15.042 138.932 15.042C141.186 15.042 142.922 15.5487 144.138 16.562C145.354 17.5753 146.114 18.88 146.418 20.476H147.482V24.77H146.76C146.76 23.1233 146.278 21.958 145.316 21.274C144.378 20.59 142.998 20.248 141.174 20.248C139.958 20.248 138.944 20.4 138.134 20.704C137.348 21.008 136.766 21.502 136.386 22.186C136.006 22.8447 135.816 23.7693 135.816 24.96C135.816 26.1 136.006 27.012 136.386 27.696C136.766 28.38 137.348 28.874 138.134 29.178C138.944 29.482 139.958 29.634 141.174 29.634C142.39 29.634 143.403 29.482 144.214 29.178C145.05 28.874 145.683 28.3927 146.114 27.734C146.544 27.05 146.76 26.1633 146.76 25.074H147.482L147.862 29.178H146.836C146.481 31.0527 145.67 32.4713 144.404 33.434C143.137 34.3713 141.414 34.84 139.236 34.84ZM152.46 34.46H147.14V28.836L146.76 28.342V9H152.46V34.46Z" fill="#242424"/>
<path d="M189.828 34.46H184.128V24.504C184.128 22.9333 183.811 21.8187 183.178 21.16C182.544 20.5013 181.404 20.172 179.758 20.172C178.035 20.172 176.857 20.5393 176.224 21.274C175.616 22.0087 175.312 23.1993 175.312 24.846H174.59L174.134 21.274H175.236C175.388 20.1847 175.717 19.1713 176.224 18.234C176.756 17.2967 177.528 16.5367 178.542 15.954C179.58 15.346 180.91 15.042 182.532 15.042C184.178 15.042 185.534 15.3713 186.598 16.03C187.687 16.6887 188.498 17.588 189.03 18.728C189.562 19.868 189.828 21.16 189.828 22.604V34.46ZM160.796 34.46H155.096V15.422H160.378V21.35L160.796 21.54V34.46ZM175.312 34.46H169.612V24.504C169.612 22.9333 169.295 21.8187 168.662 21.16C168.028 20.5013 166.888 20.172 165.242 20.172C163.494 20.172 162.316 20.5393 161.708 21.274C161.1 22.0087 160.796 23.1993 160.796 24.846H160.074L159.656 21.198H160.682C160.859 20.134 161.201 19.146 161.708 18.234C162.214 17.2967 162.962 16.5367 163.95 15.954C164.938 15.346 166.23 15.042 167.826 15.042C169.472 15.042 170.815 15.384 171.854 16.068C172.918 16.752 173.703 17.664 174.21 18.804C174.716 19.944 174.97 21.2107 174.97 22.604H175.312V34.46Z" fill="#242424"/>
<path d="M211.573 34.46H206.253V29.938L205.949 29.862V23.212C205.949 21.9707 205.632 21.1347 204.999 20.704C204.391 20.2733 203.327 20.058 201.807 20.058C200.363 20.058 199.324 20.2733 198.691 20.704C198.057 21.1347 197.741 21.8947 197.741 22.984V23.136H192.003V23.022C192.003 21.4513 192.421 20.0707 193.257 18.88C194.093 17.664 195.271 16.7267 196.791 16.068C198.336 15.384 200.147 15.042 202.225 15.042C204.353 15.042 206.101 15.384 207.469 16.068C208.862 16.752 209.888 17.7147 210.547 18.956C211.231 20.172 211.573 21.616 211.573 23.288V34.46ZM198.197 34.84C196.145 34.84 194.536 34.384 193.371 33.472C192.205 32.56 191.623 31.3187 191.623 29.748C191.623 28.7853 191.851 27.962 192.307 27.278C192.763 26.594 193.447 26.0493 194.359 25.644C195.271 25.2133 196.411 24.922 197.779 24.77L206.329 23.896V27.164L199.337 27.962C198.653 28.0127 198.146 28.152 197.817 28.38C197.513 28.5827 197.361 28.912 197.361 29.368C197.361 29.8747 197.563 30.242 197.969 30.47C198.374 30.698 198.995 30.812 199.831 30.812C201.199 30.812 202.326 30.6853 203.213 30.432C204.099 30.1787 204.771 29.7733 205.227 29.216C205.708 28.6333 205.949 27.8607 205.949 26.898L206.481 26.86V30.09H205.949C205.518 31.5593 204.644 32.7247 203.327 33.586C202.035 34.422 200.325 34.84 198.197 34.84Z" fill="#242424"/>
<path d="M219.782 34.46H214.082V15.422H219.364V20.856L219.782 21.046V34.46ZM219.782 23.44H218.642V20.476H219.706C219.883 19.4373 220.225 18.5127 220.732 17.702C221.264 16.866 221.973 16.22 222.86 15.764C223.746 15.2827 224.823 15.042 226.09 15.042C227.534 15.042 228.686 15.346 229.548 15.954C230.434 16.5367 231.08 17.3347 231.486 18.348C231.891 19.336 232.094 20.4507 232.094 21.692V24.846H226.394V22.87C226.394 21.806 226.153 21.046 225.672 20.59C225.216 20.1087 224.405 19.868 223.24 19.868C221.973 19.868 221.074 20.1593 220.542 20.742C220.035 21.3247 219.782 22.224 219.782 23.44Z" fill="#242424"/>
<path d="M247.192 34.46H242.48C240.251 34.46 238.503 33.9153 237.236 32.826C235.969 31.7367 235.336 29.9887 235.336 27.582V11.736H241.036V26.936C241.036 27.8987 241.239 28.5447 241.644 28.874C242.075 29.178 242.784 29.33 243.772 29.33H247.192V34.46ZM247.192 20.134H232.334V15.422H247.192V20.134Z" fill="#242424"/>
<path d="M255.901 34.46H248.567V27.81H255.901V34.46Z" fill="#242424"/>
</g>
<defs>
<clipPath id="clip0_12236_13005">
<rect width="256" height="43" fill="white"/>
</clipPath>
</defs>
</svg>
