<svg width="20" height="21" viewBox="0 0 20 21" fill="none" xmlns="http://www.w3.org/2000/svg">
<path d="M6.25 16.2188C6.51042 16.2708 6.77083 16.3099 7.03125 16.3359C7.29167 16.362 7.55208 16.375 7.8125 16.375C8.75 16.375 9.63542 16.2188 10.4688 15.9062C11.3151 15.5938 12.0768 15.1641 12.7539 14.6172L18.6719 20.5156C18.8151 20.6719 18.9974 20.75 19.2188 20.75C19.4401 20.75 19.6224 20.6719 19.7656 20.5156C19.9219 20.3724 20 20.1901 20 19.9688C20 19.7474 19.9219 19.5651 19.7656 19.4219L13.8672 13.5039C14.2578 13.0221 14.5898 12.4948 14.8633 11.9219C15.1367 11.349 15.3385 10.75 15.4688 10.125C15.5208 9.86458 15.5599 9.60417 15.5859 9.34375C15.612 9.08333 15.625 8.82292 15.625 8.5625C15.625 7.48177 15.4232 6.46615 15.0195 5.51562C14.6029 4.5651 14.043 3.73828 13.3398 3.03516C12.6367 2.33203 11.8099 1.77214 10.8594 1.35547C9.90885 0.951823 8.89323 0.75 7.8125 0.75C6.73177 0.75 5.71615 0.951823 4.76562 1.35547C3.8151 1.77214 2.98828 2.33203 2.28516 3.03516C1.58203 3.73828 1.02214 4.5651 0.605469 5.51562C0.201823 6.46615 0 7.48177 0 8.5625C0 9.51302 0.15625 10.4115 0.46875 11.2578C0.794271 12.1042 1.23698 12.8659 1.79688 13.543C2.35677 14.2201 3.01432 14.7865 3.76953 15.2422C4.53776 15.7109 5.36458 16.0365 6.25 16.2188ZM7.8125 14.8125C6.95312 14.8125 6.13932 14.6497 5.37109 14.3242C4.61589 13.9987 3.95182 13.556 3.37891 12.9961C2.81901 12.4232 2.3763 11.7591 2.05078 11.0039C1.72526 10.2357 1.5625 9.42188 1.5625 8.5625C1.5625 7.70312 1.72526 6.88932 2.05078 6.12109C2.3763 5.36589 2.81901 4.70833 3.37891 4.14844C3.95182 3.57552 4.61589 3.1263 5.37109 2.80078C6.13932 2.47526 6.95312 2.3125 7.8125 2.3125C8.67188 2.3125 9.48568 2.47526 10.2539 2.80078C11.0091 3.1263 11.6667 3.57552 12.2266 4.14844C12.7995 4.70833 13.2487 5.36589 13.5742 6.12109C13.8997 6.88932 14.0625 7.70312 14.0625 8.5625C14.0625 9.42188 13.8997 10.2357 13.5742 11.0039C13.2487 11.7591 12.7995 12.4232 12.2266 12.9961C11.6667 13.556 11.0091 13.9987 10.2539 14.3242C9.48568 14.6497 8.67188 14.8125 7.8125 14.8125Z" fill="black"/>
</svg>
