<svg width="11" height="7" viewBox="0 0 11 7" fill="none" xmlns="http://www.w3.org/2000/svg">
<path d="M5.86523 6.37305L10.4199 1.73242C10.5202 1.625 10.5703 1.50326 10.5703 1.36719C10.5703 1.22396 10.5202 1.10221 10.4199 1.00195C10.3125 0.901693 10.1872 0.851562 10.0439 0.851562C9.90788 0.851562 9.78971 0.901693 9.68945 1.00195L5.5 5.2666L1.31055 1.00195C1.21029 0.901693 1.08854 0.851562 0.945312 0.851562C0.809245 0.851562 0.6875 0.901693 0.580078 1.00195C0.479818 1.10221 0.429688 1.22396 0.429688 1.36719C0.429688 1.50326 0.479818 1.625 0.580078 1.73242L5.13477 6.37305C5.1849 6.42318 5.23861 6.46257 5.2959 6.49121C5.36035 6.5127 5.42839 6.52344 5.5 6.52344C5.57161 6.52344 5.63607 6.5127 5.69336 6.49121C5.75781 6.46257 5.8151 6.42318 5.86523 6.37305Z" fill="black"/>
</svg>
